#!OML:ASF I:\Actors\actors\Patient Classification 1\Patient 1\Session 1\Subject1.ASF
:FULLY-SPECIFIED
:DEGREES
2055
root 0.117977 17.5966 8.14216 18.8965 3.41109 -10.5296
lowerback 12.8382 1.56619 11.2143
upperback 0.17268 3.33767 -5.94827
thorax -6.03996 1.2198 -13.6342
lowerneck 5.84913 3.36434 5.46215
upperneck -17.0312 3.65283 -10.2327
head -5.75926 2.23804 -4.40036
rclavicle -2.38542e-014 -2.22639e-014
rhumerus -15.9371 49.0086 -70.3311
rradius 126.706
rwrist 28.7986
rhand 2.38385 -37.4758
rfingers 7.12502
rthumb 27.8716 -65.428
lclavicle -2.38542e-014 -2.22639e-014
lhumerus 14.8453 -63.8857 35.7855
lradius 115.516
lwrist -6.08226
lhand -27.0963 -34.7179
lfingers 7.12502
lthumb -0.513118 -4.73873
rfemur -15.6131 35.7356 17.3359
rtibia -0.39509
rfoot -17.0663 -39.0527
rtoes 13.2311
lfemur -14.1851 -59.0207 8.338
ltibia -5.4554
lfoot -51.6289 63.1089
ltoes 30.0646
2056
root 0.128296 17.5963 8.15833 19.1761 3.70917 -10.8411
lowerback 12.7883 1.69754 11.2771
upperback 0.153017 3.52198 -5.89225
thorax -5.97565 1.31505 -13.6289
lowerneck 6.32995 3.80548 6.38628
upperneck -18.1551 4.31942 -10.4114
head -6.10785 2.54144 -4.70328
rclavicle -2.8625e-014 4.92986e-014
rhumerus -16.2469 48.6278 -70.3346
rradius 126.851
rwrist 28.755
rhand 2.32935 -37.6801
rfingers 7.12502
rthumb 27.8195 -65.6407
lclavicle -2.8625e-014 4.92986e-014
lhumerus 16.1738 -63.9381 34.8666
lradius 115.456
lwrist -5.8991
lhand -27.0327 -34.6685
lfingers 7.12502
lthumb -0.451668 -4.68923
rfemur -15.8591 35.8173 17.5044
rtibia -0.471852
rfoot -17.2243 -39.2806
rtoes 13.2939
lfemur -14.7934 -59.0436 9.26961
ltibia -5.50446
lfoot -51.7922 63.0758
ltoes 30.1701
2057
root 0.139504 17.5955 8.16891 19.3153 3.90179 -10.8914
lowerback 12.8902 1.83394 11.0973
upperback 0.125059 3.6885 -5.87509
thorax -6.02337 1.39784 -13.5326
lowerneck 6.63822 4.26831 6.84041
upperneck -18.7182 5.0672 -10.1297
head -6.26821 2.86434 -4.76047
rclavicle -3.97569e-015 1.06549e-013
rhumerus -16.6818 48.3321 -70.409
rradius 126.978
rwrist 28.8268
rhand 2.31954 -37.5988
rfingers 7.12502
rthumb 27.8101 -65.561
lclavicle -3.97569e-015 1.06549e-013
lhumerus 16.9105 -64.0949 34.5303
lradius 115.421
lwrist -6.02894
lhand -27.1998 -34.6806
lfingers 7.12502
lthumb -0.613047 -4.7017
rfemur -15.9431 35.9969 17.4208
rtibia -0.562229
rfoot -17.5375 -39.5615
rtoes 13.6596
lfemur -15.1024 -59.1572 9.59563
ltibia -5.50348
lfoot -52.0358 62.9574
ltoes 30.4966
2058
root 0.151046 17.5934 8.17788 19.3702 4.1321 -10.9236
lowerback 13.0636 1.96382 10.9037
upperback 0.17271 3.85009 -5.83179
thorax -6.03339 1.48622 -13.3984
lowerneck 6.10391 4.80604 6.98429
upperneck -18.5118 5.93563 -9.45433
head -6.05382 3.21756 -4.5834
rclavicle 7.95139e-016 -3.81667e-014
rhumerus -16.9618 47.9605 -70.3187
rradius 127.075
rwrist 28.9449
rhand 2.19281 -37.4357
rfingers 7.12502
rthumb 27.689 -65.4174
lclavicle 7.95139e-016 -3.81667e-014
lhumerus 17.9817 -64.1229 33.9322
lradius 115.393
lwrist -6.10318
lhand -27.2108 -34.6658
lfingers 7.12502
lthumb -0.62371 -4.68699
rfemur -15.9021 36.2011 17.3855
rtibia -0.666535
rfoot -18.0088 -39.8651
rtoes 14.27
lfemur -15.2881 -59.3579 9.7989
ltibia -5.49452
lfoot -52.2017 62.8787
ltoes 30.7048
2059
root 0.161412 17.5896 8.1825 19.3483 4.18744 -10.6912
lowerback 13.4368 2.12256 10.3276
upperback 0.281695 4.00052 -5.86247
thorax -6.1126 1.57643 -13.1326
lowerneck 5.20508 5.31052 7.01444
upperneck -18.194 6.75107 -8.57857
head -5.76669 3.53718 -4.30036
rclavicle -1.74931e-014 4.13472e-014
rhumerus -17.0635 47.4783 -70.1195
rradius 127.158
rwrist 29.0189
rhand 2.02487 -37.4182
rfingers 7.12502
rthumb 27.5284 -65.4256
lclavicle -1.74931e-014 4.13472e-014
lhumerus 19.4195 -63.975 32.9917
lradius 115.356
lwrist -5.90614
lhand -27.0223 -34.632
lfingers 7.12502
lthumb -0.441589 -4.65275
rfemur -15.7706 36.0885 17.1403
rtibia -0.756945
rfoot -18.0783 -39.8717
rtoes 14.3181
lfemur -15.0643 -59.5851 9.31324
ltibia -5.51372
lfoot -52.9769 62.4667
ltoes 31.5625
2060
root 0.167388 17.588 8.17824 19.3099 4.12099 -10.2736
lowerback 13.9225 2.26875 9.49145
upperback 0.344193 4.09323 -5.94286
thorax -6.33941 1.63055 -12.7757
lowerneck 4.435 5.80589 6.60601
upperneck -17.866 7.57671 -7.2448
head -5.54907 3.864 -3.80726
rclavicle -3.02153e-014 -4.13472e-014
rhumerus -17.1959 47.1124 -70.0723
rradius 127.239
rwrist 29.1033
rhand 1.8898 -37.4617
rfingers 7.12502
rthumb 27.3992 -65.4896
lclavicle -3.02153e-014 -4.13472e-014
lhumerus 20.2953 -63.8567 32.4407
lradius 115.304
lwrist -5.80406
lhand -27.0909 -34.567
lfingers 7.12502
lthumb -0.507845 -4.58787
rfemur -15.7284 35.9852 16.6293
rtibia -0.785237
rfoot -17.9815 -39.8844
rtoes 14.0525
lfemur -14.846 -59.7595 8.61941
ltibia -5.52394
lfoot -53.8082 61.9947
ltoes 32.5431
